<?xml version="1.0" encoding="UTF-8"?>
<svg id="Layer_1" xmlns="http://www.w3.org/2000/svg" version="1.1" viewBox="0 0 545.5 84.2">
  <!-- Generator: Adobe Illustrator 30.0.0, SVG Export Plug-In . SVG Version: 2.1.1 Build 123)  -->
  <path d="M21.4,23.3c-.4-1.6-.3-3.2,0-4.1.5-2.5,2.2-5.2,7.1-5.2s7.2,2.8,7.2,7.1v4.8h19.4v-5.5C55.1,3.4,39.9.7,28.8.7S3.7,5.3,1.6,18c-.6,3.5-.7,6.6.2,10.5,3.4,15.9,31.1,20.5,35.1,30.6.8,1.9.5,4.3.2,5.8-.6,2.6-2.4,5.3-7.6,5.3s-7.8-2.8-7.8-7.1v-7.5H.7v6c0,17.4,13.7,22.6,28.3,22.6s25.6-4.8,27.5-17.8c.9-6.7.2-11.1,0-12.7-3.3-16.3-32.8-21.2-35-30.3ZM274.7,23.5c-.3-1.5-.2-3.2,0-4,.6-2.5,2.2-5.2,7.1-5.2s7.1,2.8,7.1,7v4.8h19.2v-5.4c0-16.8-15-19.4-25.9-19.4s-24.9,4.5-27,17.1c-.5,3.4-.7,6.5.2,10.4,3.3,15.7,30.7,20.3,34.7,30.3.7,1.9.5,4.3.1,5.7-.6,2.6-2.3,5.2-7.5,5.2s-7.8-2.8-7.8-7v-7.5h-20.7v5.9c0,17.2,13.5,22.4,28,22.4s25.4-4.8,27.2-17.6c.9-6.7.2-11-.1-12.6-3.2-16.1-32.4-21-34.6-30ZM451.5,65.9l-18.3-62.7h-28.9v77.1h19.1l-1.1-64.7,19.7,64.7h27.7V3.2h-19.2l1.1,62.7ZM84.1,3.2l-14.4,77.9h21l10.9-72.1,10.6,72.1h20.9L118.7,3.2h-34.6ZM201.7,3.2l-9.8,60.9-9.8-60.9h-31.8l-1.7,77.9h19.5l.5-72.1,13.4,72.1h19.7l13.4-72.1.5,72.1h19.5l-1.7-77.9h-31.7ZM382.7,3.2h-19.7v57.6c0,1,0,2.1-.2,3-.4,1.9-2,5.7-7.5,5.7s-7-3.7-7.4-5.7c-.2-.8-.2-2-.2-3V3.2h-19.7v55.8c0,1.4,0,4.4.2,5.1,1.4,14.5,12.8,19.3,27.1,19.3s25.8-4.7,27.2-19.3c.1-.8.3-3.7.2-5.1V3.2ZM517.9,37.4v11.4h8v11.3c0,1,0,2.1-.2,3-.3,2.1-2.3,5.7-8,5.7s-7.6-3.6-7.9-5.7c-.1-.9-.2-2-.2-3V24.4c0-1.3,0-2.6.4-3.7.4-1.9,2.1-5.6,7.7-5.6s7.4,3.9,7.8,5.6c.2,1.1.2,3,.2,3v4.3h19.6v-2.6s0-2.7-.1-5.2c-1.5-14.6-13.5-19.2-27.3-19.2s-25.6,4.7-27.3,19.2c-.2,1.3-.4,3.7-.4,5.2v32.7c0,1.4,0,2.5.3,5.1,1.3,14.2,13.6,19.2,27.4,19.2s26.1-5,27.4-19.2c.2-2.6.3-3.7.3-5.1v-20.9h-27.5Z"/>
</svg>